<svg width="208" height="253" viewBox="0 0 208 253" fill="none" xmlns="http://www.w3.org/2000/svg">
<path d="M135.89 249.135H39.9678V33.3106V9.33008L67.944 33.3106H111.909L135.89 9.33008V33.3106V249.135Z" fill="#F9B233"/>
<path d="M87.9288 173.197C101.173 173.197 111.909 162.461 111.909 149.217C111.909 135.973 101.173 125.236 87.9288 125.236C74.6847 125.236 63.9482 135.973 63.9482 149.217C63.9482 162.461 74.6847 173.197 87.9288 173.197Z" fill="#FAD399"/>
<path d="M63.9482 33.3115L87.9288 61.2888L111.909 33.3115H63.9482Z" fill="#FAD399"/>
<path d="M111.909 37.308H127.896V21.3213C127.896 21.3213 111.909 37.7414 111.909 37.308Z" fill="#FAD399"/>
<path d="M47.9609 21.3213C47.9609 21.3213 63.9482 37.7414 63.9482 37.3085H47.9609" fill="#FAD399"/>
<path d="M99.9188 73.2783C96.1164 73.2783 92.6711 74.6609 89.9272 76.8777C87.1832 74.6609 83.7374 73.2783 79.9355 73.2783C71.1058 73.2783 63.9482 80.4358 63.9482 89.2655C63.9482 98.0947 71.1058 105.252 79.9355 105.252C83.7379 105.252 87.1832 103.87 89.9272 101.653C92.6711 103.87 96.117 105.252 99.9188 105.252C108.749 105.252 115.906 98.0947 115.906 89.2655C115.906 80.4358 108.748 73.2783 99.9188 73.2783Z" fill="#FAD399"/>
<path d="M64.0803 165.071H59.9512V157.342H71.8098V245.27H79.9351V253H64.0803V165.071Z" fill="#1D1D1B"/>
<path d="M111.778 165.071H115.906V157.342H104.048V245.27H95.9229V253H111.778V165.071Z" fill="#1D1D1B"/>
<path d="M71.9421 57.4238H63.9482V65.1533H71.9421V57.4238Z" fill="#1D1D1B"/>
<path d="M111.91 57.4238H103.916V65.1533H111.91V57.4238Z" fill="#1D1D1B"/>
<path d="M79.9346 81.1407H84.0632V93.2626H91.7927V81.1407H95.9218V73.4111H79.9346V81.1407Z" fill="#1D1D1B"/>
<path d="M175.857 85.137V77.4075H139.754V0L110.308 29.4464H65.5484L36.103 0V77.4075H0V85.137H36.103V89.3975H23.9806V97.1271H36.103V253H59.9512V245.27H43.8326V97.1271H71.9417V89.3975H43.8326V85.137H71.9417V77.4075H43.8326V18.6611L62.3468 37.1759H113.51L132.024 18.6611V77.4075H103.915V85.137H132.024V89.3975H103.915V97.1271H132.024V245.27H115.906V253H139.754V97.1271H151.877V89.3975H139.754V85.137H175.857Z" fill="#1D1D1B"/>
<path d="M151.877 253H143.883V245.271H151.877C156.357 245.271 160.002 241.625 160.002 237.145V161.207C160.002 148.057 170.701 137.358 183.851 137.358C197.001 137.358 207.699 148.057 207.699 161.207H199.969C199.969 152.319 192.739 145.088 183.851 145.088C174.963 145.088 167.732 152.319 167.732 161.207V237.145C167.731 245.888 160.619 253 151.877 253Z" fill="#1D1D1B"/>
</svg>
