<svg width="320" height="1080" viewBox="0 0 320 1080" fill="none" xmlns="http://www.w3.org/2000/svg">
<g clip-path="url(#clip0)">
<path d="M0 0H320V1080H0V540V0Z" fill="#FFE8DB"/>
<path d="M0 0H320V648H0V324V0Z" fill="#FCD6C1"/>
<g clip-path="url(#clip1)">
<path d="M296.311 373.161V469.227C296.311 472.68 293.822 475.486 290.739 475.486C287.666 475.486 285.168 472.68 285.168 469.227V373.161C285.168 369.708 287.666 366.902 290.739 366.902C293.822 366.902 296.311 369.708 296.311 373.161Z" fill="#F7B239"/>
<path d="M296.311 373.161V418.539H285.168V373.161C285.168 369.708 287.666 366.902 290.739 366.902C293.822 366.902 296.311 369.708 296.311 373.161Z" fill="#E5A030"/>
<path d="M256.966 375.943H245.823V700.022H256.966V375.943Z" fill="#808080"/>
<path d="M251.394 310.571C248.318 310.571 245.823 307.769 245.823 304.312V263.259C245.823 259.802 248.318 257 251.394 257C254.472 257 256.966 259.802 256.966 263.259V304.312C256.966 307.769 254.472 310.571 251.394 310.571Z" fill="#808080"/>
<path d="M256.966 373.161V418.539H245.823V373.161C245.823 369.708 248.321 366.902 251.394 366.902C254.477 366.902 256.966 369.708 256.966 373.161Z" fill="#666666"/>
<path d="M352.789 396.117C352.789 333.206 307.394 282.205 251.395 282.205C195.397 282.205 150.001 333.205 150.001 396.117H352.789Z" fill="#F24125"/>
<path d="M252.664 282.213C252.667 282.213 252.676 282.213 252.678 282.213C252.675 282.213 252.668 282.213 252.664 282.213ZM252.464 282.211C252.478 282.211 252.492 282.211 252.506 282.211C252.492 282.211 252.478 282.211 252.464 282.211ZM252.276 282.209C252.297 282.209 252.314 282.209 252.334 282.21C252.315 282.209 252.296 282.209 252.276 282.209ZM252.097 282.208C252.118 282.208 252.139 282.208 252.159 282.208C252.139 282.208 252.118 282.208 252.097 282.208ZM251.92 282.206C251.944 282.206 251.963 282.206 251.986 282.206C251.963 282.207 251.941 282.207 251.92 282.206ZM251.744 282.206C251.765 282.206 251.788 282.206 251.808 282.206C251.787 282.206 251.766 282.206 251.744 282.206ZM251.569 282.205C251.586 282.205 251.606 282.205 251.624 282.205C251.606 282.205 251.587 282.205 251.569 282.205Z" fill="#A5A5A5"/>
<path d="M251.394 282.205C195.396 282.205 150 333.205 150 396.117H195.498C195.498 341.992 229.098 296.686 274.143 285.086C267.231 283.306 260.049 282.318 252.679 282.214C252.675 282.214 252.666 282.214 252.664 282.214C252.611 282.213 252.558 282.213 252.505 282.212C252.491 282.212 252.477 282.212 252.463 282.212C252.419 282.212 252.377 282.211 252.334 282.211C252.314 282.211 252.297 282.211 252.277 282.21C252.238 282.21 252.199 282.209 252.16 282.209C252.139 282.209 252.118 282.209 252.097 282.209C252.06 282.209 252.023 282.209 251.986 282.208C251.962 282.208 251.943 282.208 251.92 282.208C251.883 282.208 251.847 282.208 251.809 282.207C251.788 282.207 251.765 282.207 251.744 282.207C251.705 282.207 251.664 282.207 251.624 282.207C251.607 282.207 251.587 282.207 251.569 282.207C251.511 282.205 251.453 282.205 251.394 282.205Z" fill="#DD3B2A"/>
<path d="M309.364 712H193.426L198.171 699.706C200.785 692.931 206.732 688.546 213.306 688.546H289.484C296.058 688.546 302.003 692.931 304.619 699.706L309.364 712Z" fill="#F7B239"/>
<path d="M227.239 688.547H213.306C206.732 688.547 200.785 692.932 198.171 699.707L193.426 712.001H218.187L227.239 688.547Z" fill="#E5A030"/>
</g>
<g clip-path="url(#clip2)">
<path d="M169.862 694.586H-252.862L-216.067 647.689H133.14L169.862 694.586Z" fill="#B37417"/>
<path d="M133.14 647.69L151.483 582.035V509.345C151.483 487.332 133.995 469.483 112.427 469.483H-2.44396C-24.0121 469.483 -41.5 487.332 -41.5 509.345V647.69H133.14Z" fill="#E5AC20"/>
<path d="M197.33 610.116C193.571 610.154 189.84 612.414 188.719 616.907L170.404 690.206C170.046 691.641 169.862 693.114 169.862 694.586L133.14 647.69L151.483 582.035L197.33 610.116Z" fill="#D79B19"/>
<path d="M160.672 816.517H169.862V779H123.914L160.672 816.517Z" fill="#774836"/>
<path d="M224.458 690.208L206.143 616.909C203.873 607.829 190.989 607.829 188.719 616.909L170.404 690.208C170.046 691.643 169.862 693.115 169.862 694.588V779.002H196.935C200.886 779.208 204.957 777.004 206.143 772.267L224.458 698.968C225.184 696.089 225.184 693.087 224.458 690.208Z" fill="#FFC83E"/>
<path d="M169.862 694.586H-252.862V779H169.862V694.586Z" fill="#F5BE26"/>
</g>
<path d="M247.89 1076.14H151.968V860.311V836.331L179.944 860.311H223.909L247.89 836.331V860.311V1076.14Z" fill="#F9B233"/>
<path d="M199.929 1000.2C213.173 1000.2 223.909 989.461 223.909 976.217C223.909 962.973 213.173 952.236 199.929 952.236C186.684 952.236 175.948 962.973 175.948 976.217C175.948 989.461 186.684 1000.2 199.929 1000.2Z" fill="#FAD399"/>
<path d="M175.948 860.312L199.929 888.289L223.909 860.312H175.948Z" fill="#FAD399"/>
<path d="M223.909 864.308H239.896V848.321C239.896 848.321 223.909 864.741 223.909 864.308Z" fill="#FAD399"/>
<path d="M159.961 848.321C159.961 848.321 175.948 864.741 175.948 864.309H159.961" fill="#FAD399"/>
<path d="M211.919 900.278C208.117 900.278 204.671 901.661 201.927 903.878C199.183 901.661 195.738 900.278 191.936 900.278C183.106 900.278 175.948 907.436 175.948 916.266C175.948 925.095 183.106 932.252 191.936 932.252C195.738 932.252 199.183 930.87 201.927 928.653C204.671 930.87 208.117 932.252 211.919 932.252C220.749 932.252 227.906 925.095 227.906 916.266C227.906 907.436 220.748 900.278 211.919 900.278Z" fill="#FAD399"/>
<path d="M176.08 992.072H171.951V984.342H183.81V1072.27H191.935V1080H176.08V992.072Z" fill="#1D1D1B"/>
<path d="M223.777 992.072H227.906V984.342H216.048V1072.27H207.923V1080H223.777V992.072Z" fill="#1D1D1B"/>
<path d="M183.942 884.424H175.948V892.153H183.942V884.424Z" fill="#1D1D1B"/>
<path d="M223.909 884.424H215.916V892.153H223.909V884.424Z" fill="#1D1D1B"/>
<path d="M191.935 908.14H196.064V920.262H203.793V908.14H207.922V900.411H191.935V908.14Z" fill="#1D1D1B"/>
<path d="M287.857 912.137V904.408H251.754V827L222.308 856.446H177.548L148.103 827V904.408H112V912.137H148.103V916.398H135.981V924.127H148.103V1080H171.951V1072.27H155.833V924.127H183.942V916.398H155.833V912.137H183.942V904.408H155.833V845.661L174.347 864.176H225.51L244.024 845.661V904.408H215.915V912.137H244.024V916.398H215.915V924.127H244.024V1072.27H227.906V1080H251.754V924.127H263.877V916.398H251.754V912.137H287.857Z" fill="#1D1D1B"/>
<path d="M263.877 1080H255.883V1072.27H263.877C268.357 1072.27 272.003 1068.63 272.003 1064.15V988.207C272.003 975.057 282.701 964.358 295.851 964.358C309.001 964.358 319.699 975.057 319.699 988.207H311.969C311.969 979.319 304.739 972.088 295.851 972.088C286.963 972.088 279.732 979.319 279.732 988.207V1064.15C279.732 1072.89 272.619 1080 263.877 1080Z" fill="#1D1D1B"/>
</g>
<defs>
<clipPath id="clip0">
<rect width="320" height="1080" fill="white"/>
</clipPath>
<clipPath id="clip1">
<rect width="405" height="455" fill="white" transform="translate(22 257)"/>
</clipPath>
<clipPath id="clip2">
<rect width="533" height="544" fill="white" transform="translate(-308 371)"/>
</clipPath>
</defs>
</svg>
